name rise43.5482peak65.4966fall89.1036.mot
datacolumns 19
datarows 21
range 1.02499100000000 1.05832600000000
endheader
time	ground_force1_vx	ground_force1_vy	ground_force1_vz	ground_force1_px	ground_force1_py	ground_force1_pz	ground_force2_vx	ground_force2_vy	ground_force2_vz	ground_force2_px	ground_force2_py	ground_force2_pz	ground_torque1_x	ground_torque1_y	ground_torque1_z	ground_torque2_x	ground_torque2_y	ground_torque2_z	
1.02499100000000	5.22723400000000	706.91609500000004	52.04625300000000	0.16902300000000	0.00000000000000	0.14828000000000	0.00000000000000	0.00000000000000	0.00000000000000	0.00000000000000	0.00000000000000	0.00000000000000	0.00000000000000	16.79052800000000	0.00000000000000	0.00000000000000	0.00000000000000	0.00000000000000	
1.02665600000000	4.85200600000000	707.84429200000000	52.00567900000000	0.16800600000000	0.00000000000000	0.14823800000000	0.00000000000000	0.00000000000000	0.00000000000000	0.00000000000000	0.00000000000000	0.00000000000000	0.00000000000000	16.81356400000000	0.00000000000000	0.00000000000000	0.00000000000000	0.00000000000000	
1.02832400000000	4.47324400000000	708.79756899999995	51.96887400000000	0.16698700000000	0.00000000000000	0.14819400000000	0.00000000000000	0.00000000000000	0.00000000000000	0.00000000000000	0.00000000000000	0.00000000000000	0.00000000000000	16.83922400000000	0.00000000000000	0.00000000000000	0.00000000000000	0.00000000000000	
1.02999500000000	4.09102600000000	709.77435500000001	51.93568900000000	0.16596600000000	0.00000000000000	0.14814700000000	0.00000000000000	0.00000000000000	0.00000000000000	0.00000000000000	0.00000000000000	0.00000000000000	0.00000000000000	16.86745800000000	0.00000000000000	0.00000000000000	0.00000000000000	0.00000000000000	
1.03167100000000	3.70544500000000	710.77313800000002	51.90598700000000	0.16494600000000	0.00000000000000	0.14809700000000	0.00000000000000	0.00000000000000	0.00000000000000	0.00000000000000	0.00000000000000	0.00000000000000	0.00000000000000	16.89821600000000	0.00000000000000	0.00000000000000	0.00000000000000	0.00000000000000	
1.03332500000000	3.31660200000000	711.79246300000000	51.87964300000000	0.16392600000000	0.00000000000000	0.14804400000000	0.00000000000000	0.00000000000000	0.00000000000000	0.00000000000000	0.00000000000000	0.00000000000000	0.00000000000000	16.93144600000000	0.00000000000000	0.00000000000000	0.00000000000000	0.00000000000000	
1.03499300000000	2.92461200000000	712.83093199999996	51.85654600000000	0.16290800000000	0.00000000000000	0.14798900000000	0.00000000000000	0.00000000000000	0.00000000000000	0.00000000000000	0.00000000000000	0.00000000000000	0.00000000000000	16.96709800000000	0.00000000000000	0.00000000000000	0.00000000000000	0.00000000000000	
1.03666300000000	2.52959800000000	713.88720899999998	51.83659700000000	0.16189300000000	0.00000000000000	0.14793000000000	0.00000000000000	0.00000000000000	0.00000000000000	0.00000000000000	0.00000000000000	0.00000000000000	0.00000000000000	17.00512000000000	0.00000000000000	0.00000000000000	0.00000000000000	0.00000000000000	
1.03832200000000	2.13169100000000	714.96001799999999	51.81970900000000	0.16088300000000	0.00000000000000	0.14786800000000	0.00000000000000	0.00000000000000	0.00000000000000	0.00000000000000	0.00000000000000	0.00000000000000	0.00000000000000	17.04545700000000	0.00000000000000	0.00000000000000	0.00000000000000	0.00000000000000	
1.03999300000000	1.73103100000000	716.04814199999998	51.80580500000000	0.15987700000000	0.00000000000000	0.14780300000000	0.00000000000000	0.00000000000000	0.00000000000000	0.00000000000000	0.00000000000000	0.00000000000000	0.00000000000000	17.08805700000000	0.00000000000000	0.00000000000000	0.00000000000000	0.00000000000000	
1.04166200000000	1.32776600000000	717.15042600000004	51.79482100000000	0.15887800000000	0.00000000000000	0.14773600000000	0.00000000000000	0.00000000000000	0.00000000000000	0.00000000000000	0.00000000000000	0.00000000000000	0.00000000000000	17.13286200000000	0.00000000000000	0.00000000000000	0.00000000000000	0.00000000000000	
1.04332100000000	0.92204700000000	718.26577299999997	51.78670100000000	0.15788600000000	0.00000000000000	0.14766500000000	0.00000000000000	0.00000000000000	0.00000000000000	0.00000000000000	0.00000000000000	0.00000000000000	0.00000000000000	17.17981600000000	0.00000000000000	0.00000000000000	0.00000000000000	0.00000000000000	
1.04499400000000	0.51403400000000	719.39314800000000	51.78140100000000	0.15690100000000	0.00000000000000	0.14759100000000	0.00000000000000	0.00000000000000	0.00000000000000	0.00000000000000	0.00000000000000	0.00000000000000	0.00000000000000	17.22885700000000	0.00000000000000	0.00000000000000	0.00000000000000	0.00000000000000	
1.04665900000000	0.10388800000000	720.53157099999999	51.77888500000000	0.15592500000000	0.00000000000000	0.14751500000000	0.00000000000000	0.00000000000000	0.00000000000000	0.00000000000000	0.00000000000000	0.00000000000000	0.00000000000000	17.27992400000000	0.00000000000000	0.00000000000000	0.00000000000000	0.00000000000000	
1.04832200000000	-0.30822300000000	721.68011899999999	51.77912600000000	0.15495800000000	0.00000000000000	0.14743500000000	0.00000000000000	0.00000000000000	0.00000000000000	0.00000000000000	0.00000000000000	0.00000000000000	0.00000000000000	17.33295300000000	0.00000000000000	0.00000000000000	0.00000000000000	0.00000000000000	
1.05000400000000	-0.72213100000000	722.83792400000004	51.78210300000000	0.15400000000000	0.00000000000000	0.14735200000000	0.00000000000000	0.00000000000000	0.00000000000000	0.00000000000000	0.00000000000000	0.00000000000000	0.00000000000000	17.38787700000000	0.00000000000000	0.00000000000000	0.00000000000000	0.00000000000000	
1.05165800000000	-1.13766300000000	724.00417300000004	51.78780500000000	0.15305300000000	0.00000000000000	0.14726700000000	0.00000000000000	0.00000000000000	0.00000000000000	0.00000000000000	0.00000000000000	0.00000000000000	0.00000000000000	17.44462600000000	0.00000000000000	0.00000000000000	0.00000000000000	0.00000000000000	
1.05332100000000	-1.55464700000000	725.17810099999997	51.79622600000000	0.15211600000000	0.00000000000000	0.14717900000000	0.00000000000000	0.00000000000000	0.00000000000000	0.00000000000000	0.00000000000000	0.00000000000000	0.00000000000000	17.50312900000000	0.00000000000000	0.00000000000000	0.00000000000000	0.00000000000000	
1.05498900000000	-1.97290700000000	726.35899300000005	51.80736500000000	0.15119000000000	0.00000000000000	0.14708800000000	0.00000000000000	0.00000000000000	0.00000000000000	0.00000000000000	0.00000000000000	0.00000000000000	0.00000000000000	17.56331100000000	0.00000000000000	0.00000000000000	0.00000000000000	0.00000000000000	
1.05665900000000	-2.39226800000000	727.54618000000005	51.82122700000000	0.15027600000000	0.00000000000000	0.14699500000000	0.00000000000000	0.00000000000000	0.00000000000000	0.00000000000000	0.00000000000000	0.00000000000000	0.00000000000000	17.62509300000000	0.00000000000000	0.00000000000000	0.00000000000000	0.00000000000000	
1.05832600000000	-2.81255500000000	728.73903700000005	51.83782000000000	0.14937200000000	0.00000000000000	0.14689900000000	0.00000000000000	0.00000000000000	0.00000000000000	0.00000000000000	0.00000000000000	0.00000000000000	0.00000000000000	17.68839600000000	0.00000000000000	0.00000000000000	0.00000000000000	0.00000000000000	
